<mxfile host="app.diagrams.net" modified="2022-04-21T21:17:37.524Z" agent="5.0 (Macintosh; Intel Mac OS X 10_15_7) AppleWebKit/537.36 (KHTML, like Gecko) Chrome/100.0.4896.88 Safari/537.36" etag="LURDfqOU_9JNMVyqkLRJ" version="17.4.6" type="github">
  <diagram id="C5RBs43oDa-KdzZeNtuy" name="Page-1">
    <mxGraphModel dx="901" dy="517" grid="1" gridSize="10" guides="1" tooltips="1" connect="1" arrows="1" fold="1" page="1" pageScale="1" pageWidth="827" pageHeight="1169" math="0" shadow="0">
      <root>
        <mxCell id="WIyWlLk6GJQsqaUBKTNV-0" />
        <mxCell id="WIyWlLk6GJQsqaUBKTNV-1" parent="WIyWlLk6GJQsqaUBKTNV-0" />
        <mxCell id="73MtktfCnoAecuYUfuma-3" style="edgeStyle=orthogonalEdgeStyle;rounded=0;orthogonalLoop=1;jettySize=auto;html=1;entryX=0.5;entryY=0;entryDx=0;entryDy=0;" edge="1" parent="WIyWlLk6GJQsqaUBKTNV-1" source="WIyWlLk6GJQsqaUBKTNV-3" target="73MtktfCnoAecuYUfuma-0">
          <mxGeometry relative="1" as="geometry" />
        </mxCell>
        <mxCell id="WIyWlLk6GJQsqaUBKTNV-3" value="Reset" style="rounded=1;whiteSpace=wrap;html=1;fontSize=12;glass=0;strokeWidth=1;shadow=0;" parent="WIyWlLk6GJQsqaUBKTNV-1" vertex="1">
          <mxGeometry x="280" y="100" width="120" height="40" as="geometry" />
        </mxCell>
        <mxCell id="73MtktfCnoAecuYUfuma-2" style="edgeStyle=orthogonalEdgeStyle;rounded=0;orthogonalLoop=1;jettySize=auto;html=1;" edge="1" parent="WIyWlLk6GJQsqaUBKTNV-1" source="73MtktfCnoAecuYUfuma-0" target="73MtktfCnoAecuYUfuma-1">
          <mxGeometry relative="1" as="geometry" />
        </mxCell>
        <mxCell id="73MtktfCnoAecuYUfuma-0" value="Record Date/Time" style="rounded=1;whiteSpace=wrap;html=1;fontSize=12;glass=0;strokeWidth=1;shadow=0;" vertex="1" parent="WIyWlLk6GJQsqaUBKTNV-1">
          <mxGeometry x="280" y="180" width="120" height="40" as="geometry" />
        </mxCell>
        <mxCell id="73MtktfCnoAecuYUfuma-5" style="edgeStyle=orthogonalEdgeStyle;rounded=0;orthogonalLoop=1;jettySize=auto;html=1;entryX=0.5;entryY=0;entryDx=0;entryDy=0;" edge="1" parent="WIyWlLk6GJQsqaUBKTNV-1" source="73MtktfCnoAecuYUfuma-1" target="73MtktfCnoAecuYUfuma-4">
          <mxGeometry relative="1" as="geometry" />
        </mxCell>
        <mxCell id="73MtktfCnoAecuYUfuma-1" value="Connect to WiFi" style="rounded=1;whiteSpace=wrap;html=1;fontSize=12;glass=0;strokeWidth=1;shadow=0;" vertex="1" parent="WIyWlLk6GJQsqaUBKTNV-1">
          <mxGeometry x="280" y="260" width="120" height="40" as="geometry" />
        </mxCell>
        <mxCell id="73MtktfCnoAecuYUfuma-7" style="edgeStyle=orthogonalEdgeStyle;rounded=0;orthogonalLoop=1;jettySize=auto;html=1;" edge="1" parent="WIyWlLk6GJQsqaUBKTNV-1" source="73MtktfCnoAecuYUfuma-4" target="73MtktfCnoAecuYUfuma-6">
          <mxGeometry relative="1" as="geometry" />
        </mxCell>
        <mxCell id="73MtktfCnoAecuYUfuma-4" value="Take temp measurement" style="rounded=1;whiteSpace=wrap;html=1;fontSize=12;glass=0;strokeWidth=1;shadow=0;" vertex="1" parent="WIyWlLk6GJQsqaUBKTNV-1">
          <mxGeometry x="280" y="340" width="120" height="40" as="geometry" />
        </mxCell>
        <mxCell id="73MtktfCnoAecuYUfuma-9" style="edgeStyle=orthogonalEdgeStyle;rounded=0;orthogonalLoop=1;jettySize=auto;html=1;entryX=0;entryY=0.5;entryDx=0;entryDy=0;" edge="1" parent="WIyWlLk6GJQsqaUBKTNV-1" source="73MtktfCnoAecuYUfuma-6" target="73MtktfCnoAecuYUfuma-8">
          <mxGeometry relative="1" as="geometry" />
        </mxCell>
        <mxCell id="73MtktfCnoAecuYUfuma-6" value="Format and send MQTT message" style="rounded=1;whiteSpace=wrap;html=1;fontSize=12;glass=0;strokeWidth=1;shadow=0;" vertex="1" parent="WIyWlLk6GJQsqaUBKTNV-1">
          <mxGeometry x="280" y="420" width="120" height="40" as="geometry" />
        </mxCell>
        <mxCell id="73MtktfCnoAecuYUfuma-12" style="edgeStyle=orthogonalEdgeStyle;rounded=0;orthogonalLoop=1;jettySize=auto;html=1;" edge="1" parent="WIyWlLk6GJQsqaUBKTNV-1" source="73MtktfCnoAecuYUfuma-8" target="73MtktfCnoAecuYUfuma-11">
          <mxGeometry relative="1" as="geometry" />
        </mxCell>
        <mxCell id="73MtktfCnoAecuYUfuma-8" value="Deep sleep" style="rounded=1;whiteSpace=wrap;html=1;fontSize=12;glass=0;strokeWidth=1;shadow=0;" vertex="1" parent="WIyWlLk6GJQsqaUBKTNV-1">
          <mxGeometry x="460" y="420" width="120" height="40" as="geometry" />
        </mxCell>
        <mxCell id="73MtktfCnoAecuYUfuma-13" style="edgeStyle=orthogonalEdgeStyle;rounded=0;orthogonalLoop=1;jettySize=auto;html=1;entryX=1;entryY=0.5;entryDx=0;entryDy=0;" edge="1" parent="WIyWlLk6GJQsqaUBKTNV-1" source="73MtktfCnoAecuYUfuma-11" target="73MtktfCnoAecuYUfuma-8">
          <mxGeometry relative="1" as="geometry">
            <Array as="points">
              <mxPoint x="600" y="320" />
              <mxPoint x="600" y="440" />
            </Array>
          </mxGeometry>
        </mxCell>
        <mxCell id="73MtktfCnoAecuYUfuma-20" style="edgeStyle=orthogonalEdgeStyle;rounded=0;orthogonalLoop=1;jettySize=auto;html=1;entryX=0.5;entryY=1;entryDx=0;entryDy=0;" edge="1" parent="WIyWlLk6GJQsqaUBKTNV-1" source="73MtktfCnoAecuYUfuma-11" target="73MtktfCnoAecuYUfuma-19">
          <mxGeometry relative="1" as="geometry" />
        </mxCell>
        <mxCell id="73MtktfCnoAecuYUfuma-11" value="One hour passed?" style="rhombus;whiteSpace=wrap;html=1;" vertex="1" parent="WIyWlLk6GJQsqaUBKTNV-1">
          <mxGeometry x="480" y="280" width="80" height="80" as="geometry" />
        </mxCell>
        <mxCell id="73MtktfCnoAecuYUfuma-14" value="No" style="text;html=1;strokeColor=none;fillColor=none;align=center;verticalAlign=middle;whiteSpace=wrap;rounded=0;" vertex="1" parent="WIyWlLk6GJQsqaUBKTNV-1">
          <mxGeometry x="570" y="290" width="30" height="30" as="geometry" />
        </mxCell>
        <mxCell id="73MtktfCnoAecuYUfuma-18" value="Yes" style="text;html=1;strokeColor=none;fillColor=none;align=center;verticalAlign=middle;whiteSpace=wrap;rounded=0;" vertex="1" parent="WIyWlLk6GJQsqaUBKTNV-1">
          <mxGeometry x="520" y="240" width="30" height="30" as="geometry" />
        </mxCell>
        <mxCell id="73MtktfCnoAecuYUfuma-21" style="edgeStyle=orthogonalEdgeStyle;rounded=0;orthogonalLoop=1;jettySize=auto;html=1;entryX=1;entryY=0.5;entryDx=0;entryDy=0;" edge="1" parent="WIyWlLk6GJQsqaUBKTNV-1" source="73MtktfCnoAecuYUfuma-19" target="73MtktfCnoAecuYUfuma-0">
          <mxGeometry relative="1" as="geometry" />
        </mxCell>
        <mxCell id="73MtktfCnoAecuYUfuma-19" value="Wake up" style="rounded=1;whiteSpace=wrap;html=1;fontSize=12;glass=0;strokeWidth=1;shadow=0;" vertex="1" parent="WIyWlLk6GJQsqaUBKTNV-1">
          <mxGeometry x="460" y="180" width="120" height="40" as="geometry" />
        </mxCell>
      </root>
    </mxGraphModel>
  </diagram>
</mxfile>
